# xmcd CD database file
#
# Track frame offsets:
#	150
#	592
#	26467
#	36107
#	40195
#	70357
#	87172
#	136060
#	161002
#	197210
#	237762
#	246912
#	276335
#	295212
#	306155
#
# Disc length: 4595 seconds
#
# Revision: 0
# Processed by: cddbd v1.5.1PL2 Copyright (c) Steve Scherf et al.
# Submitted via: CDex 1.51
#
DISCID=cc11f10f
DTITLE=子安武人＆氷上恭子 - 子安・氷上のゲムドラナイト　On CD
DYEAR=1997
DGENRE=General Soundtrack
TTITLE0=＜タイトルコール＞子安・氷上のゲムドラナイト　On CD
TTITLE1=子安武人 - 『動物たちの夜』 -ゲムドラナイトオープニングテーマ
TTITLE2=オープニングトーク
TTITLE3=Cm 「サイトロン編」
TTITLE4=ゲムドラ１年間振り返ってトーク ?
TTITLE5=氷上恭子＆子安武人 - 『Open Sesame〜時空旅行〜』 -ゲムドラナイト旧オープニングテーマ
TTITLE6=ゲムドラ１年間振り返ってトーク ?
TTITLE7=『星月夜』 -ゲムドラナイト旧エンディングテーマ
TTITLE8=ドラマ 第１話 「優秀弟子危機一発」
TTITLE9=ドラマ 第２話 「ロンリーナイト」
TTITLE10=Cm 「クラブGメンバーズカード編」
TTITLE11=ドラマ 第３話 「オーナー殺人事件」
TTITLE12=『あなたに出逢えてよかった』 スペシャル X'mas Song
TTITLE13=エンディングトーク
TTITLE14=氷上恭子 - 『いてよね』 -ゲムドラナイトエンディングテーマ
EXTD=YEAR: 1997
EXTT0=
EXTT1=
EXTT2=
EXTT3=
EXTT4=
EXTT5=
EXTT6=
EXTT7=
EXTT8=
EXTT9=
EXTT10=
EXTT11=
EXTT12=
EXTT13=
EXTT14=
PLAYORDER=
